<?xml version="1.0" standalone="no"?>
<!DOCTYPE svg PUBLIC "-//W3C//DTD SVG 20010904//EN"
 "http://www.w3.org/TR/2001/REC-SVG-20010904/DTD/svg10.dtd">
<svg version="1.0" xmlns="http://www.w3.org/2000/svg"
 width="237.000000pt" height="254.000000pt" viewBox="0 0 237.000000 254.000000"
 preserveAspectRatio="xMidYMid meet">
<metadata>
Created by potrace 1.16, written by Peter Selinger 2001-2019
</metadata>
<g transform="translate(0.000000,254.000000) scale(0.100000,-0.100000)"
fill="#fff" stroke="none">
<path d="M0 1270 l0 -1270 1185 0 1185 0 0 1270 0 1270 -1185 0 -1185 0 0
-1270z m992 485 c8 -18 9 -35 2 -53 l-9 -27 -198 -3 -197 -2 0 -150 0 -150
173 -2 172 -3 3 -44 c2 -28 -1 -47 -10 -52 -7 -5 -86 -9 -175 -9 l-163 0 0
-170 0 -170 193 0 c105 0 198 -4 205 -9 9 -5 12 -24 10 -52 l-3 -44 -255 -3
c-231 -2 -256 -1 -267 15 -10 13 -13 123 -13 469 0 398 2 454 16 468 13 14 51
16 260 16 l244 0 12 -25z m253 8 c5 -14 244 -711 271 -792 3 -8 8 -11 13 -5 4
5 65 185 136 399 70 215 132 396 138 403 7 9 29 12 66 10 53 -3 56 -4 53 -28
-1 -13 -50 -159 -108 -325 -58 -165 -128 -365 -156 -445 -27 -80 -56 -151 -64
-159 -19 -20 -142 -20 -154 0 -20 31 -330 916 -330 940 0 17 8 19 64 19 51 0
65 -3 71 -17z"/>
</g>
</svg>
